<?xml version="1.0" encoding="utf-8"?>
<!-- Generator: Adobe Illustrator 19.2.1, SVG Export Plug-In . SVG Version: 6.00 Build 0)  -->
<svg version="1.1" id="layer" xmlns="http://www.w3.org/2000/svg" xmlns:xlink="http://www.w3.org/1999/xlink" x="0px" y="0px"
	 viewBox="0 0 652 652" style="enable-background:new 0 0 652 652;" xml:space="preserve">
<style type="text/css">
	.st0{fill:#00B5D6;}
	.st1{fill:#2B2929;}
</style>
<path class="st0" d="M152.3,240.8H40.7c-8.3,0-14.7,6.8-14.7,14.7v139.9c0,7.9,6.5,14.7,14.7,14.7h111.6c8.3,0,14.7-6.8,14.7-14.7
	V255.6C167,247.7,160.6,240.8,152.3,240.8 M129.5,382.2h-8.1c-1.7,0-3.5-1.4-3.5-3.1c0,0-2.1-44-2.1-47
	c-0.5,4.2-13.2,47.2-13.2,47.2c-0.3,1.6-2.2,2.7-3.9,2.7h-4.3c-1.6,0-3.5-1.1-3.8-2.7c0,0-12.5-43-13.2-47.2c0,2.2-2.2,47-2.2,47
	c-0.1,1.7-1.9,3.1-3.5,3.1h-8c-1.7,0-2.8-1.4-2.6-3.1l5.9-68.5c0.1-1.7,1.9-3.1,3.5-3.1h9.4c1.6,0,3.5,1.1,3.8,2.8
	c0,0,12.6,44.8,12.9,48.6c0.3-3.7,13-48.6,13-48.6c0.3-1.7,2.2-2.8,3.9-2.8h9.3c1.7,0,3.4,1.4,3.5,3.1l5.8,68.5
	C132.3,380.8,131.2,382.2,129.5,382.2z M134.5,291.9c-1.9,3.2-6.2,4.2-9.7,2.2l-20.5-11.9c0,0,0,0,0,0l-7.5-4.3l-17.1,9.8
	c0,0,0,0,0,0l-11.3,6.5c-3.5,2-7.8,1-9.7-2.2c-1.9-3.2-0.5-7.5,3-9.5l20.6-11.8l10.9-6.3c0.2-0.1,0.3-0.1,0.5-0.2
	c0.2-0.1,0.4-0.2,0.6-0.3c0.1-0.1,0.3-0.1,0.4-0.1c0.3-0.1,0.6-0.2,1-0.2c0.1,0,0.2,0,0.3,0c0.3,0,0.7-0.1,1-0.1c0.1,0,0.3,0,0.4,0
	c0.3,0,0.6,0.1,0.9,0.1c0.2,0,0.4,0.1,0.5,0.1c0.3,0.1,0.5,0.2,0.8,0.3c0.1,0.1,0.3,0.1,0.4,0.2c0.2,0.1,0.3,0.1,0.5,0.2l19.9,11.5
	c0,0,0,0,0,0l11.2,6.5C135,284.4,136.3,288.7,134.5,291.9z"/>
<path class="st1" d="M235.7,380.9h-1.6c-1.2,0-1.8-0.5-2-1.6l-0.6-3.3c-2.3,3.8-5.1,5.3-9.1,5.3c-8,0-12.2-6.4-12.2-19
	c0-7.7,1.1-11.5,3.7-15.1c2-2.7,5.4-4.2,8.7-4.2c3.8,0,6.7,1.9,8.7,5.5v-21.2c0-0.9,0.8-1.6,1.6-1.6h2.8c0.9,0,1.6,0.6,1.6,1.6v52
	C237.3,380.2,236.5,380.9,235.7,380.9 M223.9,348.2c-2.3,0-4.1,1-5.2,3c-1.1,2-1.9,5.4-1.9,11c0,10,2.2,13.9,7.1,13.9
	c5.1,0,7.6-4.4,7.6-13.8C231.4,353.2,228.6,348.2,223.9,348.2z"/>
<path class="st1" d="M273,363.7h-19.8c0.3,7.9,3,12.1,10,12.1c2.9,0,5.1-0.6,7.4-1.2c1.1-0.3,1.7,0.2,2,1l0.7,1.9
	c0.3,0.9-0.1,1.6-1,2c-2.1,0.9-4.6,1.7-9,1.7c-10.8,0-16.6-6.8-16.6-19.4c0-11.8,5.8-18.9,14.1-18.9c7.2,0,13.8,4.4,13.8,19.1
	C274.6,363,273.9,363.7,273,363.7 M261,348c-2.6,0-6.9,1.5-7.8,10.7h15C268.1,353.5,266.1,348,261,348z"/>
<path class="st1" d="M352.9,381.3c-10.1,0-15.6-7.3-15.6-19.5c0-11.8,5.6-19.3,15.6-19.3c10,0,15.6,7.5,15.6,19.3
	C368.5,373.7,363,381.3,352.9,381.3 M352.8,350.1c-3.7,0-6.5,2.8-6.5,11.7c0,9.1,2.8,11.8,6.5,11.8c3.7,0,6.5-2.7,6.5-11.8
	C359.3,352.9,356.5,350.1,352.8,350.1z"/>
<path class="st1" d="M402,380.9h-5.1c-1.1,0-2-0.9-2-1.9v-24.8c0-2.5-0.9-4.1-3.7-4.1c-3.8,0-6.7,3.5-6.7,8.3v20.6
	c0,1.1-0.9,1.9-2,1.9h-5c-1.1,0-2-0.9-2-1.9V345c0-1.1,0.9-1.9,2-1.9h3.7c1.2,0,1.8,0.7,2,1.7l0.6,2.9c3.1-3.4,6.4-5.1,10.4-5.1
	c5.8,0,9.6,3.9,9.6,9.7v26.6C403.9,380,403.1,380.9,402,380.9"/>
<path class="st1" d="M430,380.4c-1.6,0.5-4.2,0.9-6.6,0.9c-6.2,0-8.6-3.3-8.6-9V350h-4.1c-1.1,0-1.9-0.9-1.9-1.9v-3
	c0-1.1,0.9-2,1.9-2h4.1v-7.9c0-1.3,0.4-2.4,1.6-2.7l4.9-1.2c1.6-0.4,2.4,0.3,2.4,1.9v9.9h4.7c1.1,0,2,0.9,2,2v3c0,1.1-0.9,1.9-2,1.9
	h-4.7v20.2c0,2.1,0.9,3,2.5,3c0.7,0,1.6-0.1,2.3-0.2c1.1-0.2,1.9,0.2,2.1,1.3l0.8,4C431.4,379.4,431,380.1,430,380.4"/>
<path class="st1" d="M462,364.2h-18.2c0.4,5.8,1.9,9.3,8.5,9.3c3,0,5.1-0.7,7.3-1.5c1.2-0.5,1.9,0.3,2.2,1.3l1.3,3.7
	c0.4,1.1-0.2,1.9-1.2,2.3c-3.1,1.4-6.1,2-11,2c-10.3,0-16.5-6.5-16.5-19.5c0-11.5,5.7-19.2,14.9-19.2c9.4,0,14.6,6.4,14.6,19.7
	C464,363.3,463.1,364.2,462,364.2 M449.6,349.6c-3.3,0-5.3,3.2-5.8,8.6h11.1C454.7,353.8,453.6,349.6,449.6,349.6z"/>
<path class="st1" d="M489,379.1c-0.3,1.2-1.1,1.8-2.3,1.8h-7.1c-1.2,0-2-0.6-2.3-1.8l-9.9-33.6c-0.5-1.6,0.3-2.4,1.4-2.4h6.2
	c1.1,0,1.9,0.8,2.2,1.9c0,0,6,25.5,6.2,28.1c0.2-2.6,6.1-28.1,6.1-28.1c0.2-1.1,1.1-1.9,2.2-1.9h5.7c1.1,0,1.9,0.9,1.4,2.4
	L489,379.1z"/>
<path class="st1" d="M510,336.3c-3.1,0-5.4-2.5-5.4-5.6c0-3.1,2.3-5.7,5.4-5.7c3.1,0,5.4,2.6,5.4,5.7
	C515.4,333.8,513.1,336.3,510,336.3 M512.6,380.9h-5.1c-1.1,0-1.9-0.9-1.9-1.9V345c0-1.1,0.9-1.9,1.9-1.9h5.1c1.1,0,1.9,0.9,1.9,2
	v33.9C514.6,380,513.7,380.9,512.6,380.9z"/>
<path class="st1" d="M550.5,380.9H547c-1.2,0-2.2-0.7-2.4-1.9l-0.6-3c-1.6,3.1-5,5.4-8.9,5.4c-6.9,0-12.7-4.1-12.7-19.7
	c0-6.5,1-11.8,4.4-15.5c1.7-1.9,4.7-3.6,8.1-3.6c4,0,6.8,1.9,8.6,4.4v-19.5c0-1.1,0.9-1.9,1.9-1.9h5.1c1.1,0,1.9,0.9,1.9,1.9v51.4
	C552.4,380,551.5,380.9,550.5,380.9 M538,350.2c-2.1,0-3.6,0.8-4.5,2.4c-1.1,1.8-1.6,4.8-1.6,9.4c0,8.7,2.2,11.4,6.2,11.4
	c3.7,0,5.8-3.3,5.8-11.4C543.8,353.8,541.6,350.2,538,350.2z"/>
<path class="st1" d="M587.1,364.2h-18.2c0.4,5.8,1.9,9.3,8.5,9.3c3,0,5.1-0.7,7.3-1.5c1.2-0.5,1.9,0.3,2.2,1.3l1.3,3.7
	c0.4,1.1-0.2,1.9-1.2,2.3c-3.1,1.4-6.2,2-11.1,2c-10.3,0-16.5-6.5-16.5-19.5c0-11.5,5.7-19.2,14.9-19.2c9.4,0,14.6,6.4,14.6,19.7
	C589.1,363.3,588.2,364.2,587.1,364.2 M574.7,349.6c-3.3,0-5.3,3.2-5.8,8.6H580C579.8,353.8,578.7,349.6,574.7,349.6z"/>
<path class="st1" d="M610.5,381.3c-10.1,0-15.6-7.3-15.6-19.5c0-11.8,5.6-19.3,15.6-19.3c10,0,15.6,7.5,15.6,19.3
	C626,373.7,620.6,381.3,610.5,381.3 M610.4,350.1c-3.7,0-6.5,2.8-6.5,11.7c0,9.1,2.8,11.8,6.5,11.8c3.7,0,6.5-2.7,6.5-11.8
	C616.9,352.9,614,350.1,610.4,350.1z"/>
<path class="st1" d="M329.8,380.9h-5.7c-1.2,0-2.5-1-2.5-2.2c0,0-1.5-31-1.5-33.1c-0.4,2.9-9.3,33.2-9.3,33.2
	c-0.2,1.2-1.6,1.9-2.7,1.9h-3c-1.2,0-2.5-0.8-2.7-1.9c0,0-8.8-30.2-9.3-33.2c0,1.5-1.6,33.1-1.6,33.1c-0.1,1.2-1.3,2.2-2.5,2.2h-5.6
	c-1.2,0-1.9-1-1.9-2.2l4.2-48.2c0.1-1.2,1.3-2.2,2.5-2.2h6.6c1.2,0,2.5,0.8,2.7,1.9c0,0,8.9,31.5,9.1,34.2
	c0.2-2.6,9.1-34.2,9.1-34.2c0.2-1.2,1.6-1.9,2.7-1.9h6.6c1.2,0,2.4,1,2.5,2.2l4.1,48.2C331.8,379.9,331,380.9,329.8,380.9"/>
<path class="st1" d="M221.4,310.5h-6.5c-1.2,0-2.2-1-2.2-2.2v-48.8c0-1.2,1-2.2,2.2-2.2h6.5c1.2,0,2.2,1,2.2,2.2v48.8
	C223.6,309.5,222.5,310.5,221.4,310.5"/>
<path class="st1" d="M260.1,310.5h-5.9c-1.2,0-2.1-0.9-2.1-2.1v-24.8c0-1.9-0.8-3.3-3.2-3.3c-3.4,0-5.8,3.2-5.8,7.8v20.3
	c0,1.2-0.9,2.1-2.1,2.1h-6c-1.2,0-2.1-0.9-2.1-2.1v-33.9c0-1.2,0.9-2.1,2.1-2.1h4.5c1.3,0,2,0.8,2.2,1.9l0.5,2.5
	c3-3.2,6.3-4.9,10.4-4.9c5.9,0,9.6,3.9,9.6,9.8v26.8C262.2,309.6,261.3,310.5,260.1,310.5"/>
<path class="st1" d="M288.8,310c-1.9,0.6-4.9,1.1-7.6,1.1c-6.5,0-9.1-3.8-9.1-9.7V280h-4c-1.2,0-2.1-0.9-2.1-2.1v-3.4
	c0-1.2,0.9-2.1,2.1-2.1h4v-8.1c0-1.5,0.4-2.8,1.9-3.1l5.7-1.3c1.8-0.4,2.6,0.6,2.6,2.5v10h4.8c1.2,0,2.1,0.9,2.1,2.1v3.4
	c0,1.2-0.9,2.1-2.1,2.1h-4.8v18.7c0,2.1,0.9,3.1,2.4,3.1c0.7,0,1.7-0.1,2.3-0.2c1.3-0.3,2,0.2,2.3,1.4l0.9,4.9
	C290.3,308.9,289.8,309.6,288.8,310"/>
<path class="st1" d="M320.8,294h-17.7c0.4,5,1.5,8.2,7.9,8.2c3.1,0,5.2-0.7,7.4-1.5c1.3-0.5,1.9,0.2,2.2,1.3l1.6,4.5
	c0.4,1.2-0.3,2-1.2,2.4c-3.5,1.6-6.8,2.2-11.9,2.2c-10.1,0-16.5-6.4-16.5-19.8c0-11.4,5.7-19.5,15.4-19.5c10.3,0,15.1,7.3,15.1,20.1
	C322.9,293,322,294,320.8,294 M308.1,279.8c-3.7,0-4.6,3.8-4.9,7.7h9.6C312.5,283.4,311.7,279.8,308.1,279.8z"/>
<path class="st1" d="M357.1,310.5h-6c-1.2,0-2.1-0.9-2.1-2.1v-24.8c0-1.9-0.8-3.3-3.2-3.3c-3.4,0-5.8,3.2-5.8,7.8v20.3
	c0,1.2-0.9,2.1-2.1,2.1h-6c-1.2,0-2.1-0.9-2.1-2.1v-33.9c0-1.2,0.9-2.1,2.1-2.1h4.5c1.3,0,2,0.8,2.2,1.9l0.5,2.5
	c3-3.2,6.3-4.9,10.4-4.9c5.9,0,9.6,3.9,9.6,9.8v26.8C359.2,309.6,358.3,310.5,357.1,310.5"/>
<path class="st1" d="M394.7,310.5h-4.1c-1.2,0-2.3-0.9-2.6-2.1l-0.6-2.8c-1.3,2.8-5.1,5.5-8.9,5.5c-6.5,0-12.9-3.2-12.9-20.1
	c0-6.1,1-12.1,4.7-15.8c1.6-1.6,4.5-3.4,7.9-3.4c4.1,0,6.7,1.9,8.5,4v-18.9c0-1.2,0.9-2.1,2.1-2.1h6c1.2,0,2.1,0.9,2.1,2.1v51.5
	C396.9,309.6,395.9,310.5,394.7,310.5 M382,280.5c-4.3,0-5.8,3.3-5.8,11c0,8.3,2.2,10.5,5.8,10.5c3.2,0,5.1-2.9,5.1-10.5
	C387.1,283.7,385.3,280.5,382,280.5z"/>
<path class="st1" d="M431.4,294h-17.7c0.4,5,1.5,8.2,7.9,8.2c3.1,0,5.2-0.7,7.4-1.5c1.3-0.5,1.9,0.2,2.2,1.3l1.6,4.5
	c0.4,1.2-0.3,2-1.3,2.4c-3.5,1.6-6.8,2.2-11.9,2.2c-10.1,0-16.5-6.4-16.5-19.8c0-11.4,5.7-19.5,15.4-19.5c10.3,0,15.1,7.3,15.1,20.1
	C433.5,293,432.6,294,431.4,294 M418.6,279.8c-3.7,0-4.6,3.8-4.9,7.7h9.6C423.1,283.4,422.3,279.8,418.6,279.8z"/>
<path class="st1" d="M467.7,310.5h-6c-1.2,0-2.1-0.9-2.1-2.1v-24.8c0-1.9-0.8-3.3-3.2-3.3c-3.4,0-5.8,3.2-5.8,7.8v20.3
	c0,1.2-0.9,2.1-2.1,2.1h-6c-1.2,0-2.1-0.9-2.1-2.1v-33.9c0-1.2,0.9-2.1,2.1-2.1h4.5c1.3,0,2,0.8,2.2,1.9l0.5,2.5
	c3-3.2,6.3-4.9,10.4-4.9c5.9,0,9.6,3.9,9.6,9.8v26.8C469.8,309.6,468.9,310.5,467.7,310.5"/>
<path class="st1" d="M501.1,309.7c-2.5,0.9-5.5,1.3-8.4,1.3c-10.3,0-16.8-6.1-16.8-20.1c0-10.7,5.9-19.1,17.6-19.1
	c2.4,0,4.9,0.5,7.1,1.3c1.4,0.5,1.6,1.6,1.4,2.4l-1.4,4.5c-0.3,0.9-1,1.6-2.5,1.3c-1.1-0.3-2-0.7-3.8-0.7c-5,0-7.8,3.2-7.8,10.3
	c0,7.8,2.2,11.1,8,11.1c1.4,0,3.4-0.2,4.9-0.6c1.3-0.4,2,0.2,2.2,1.3l0.9,4.6C502.6,308.5,502.3,309.2,501.1,309.7"/>
<path class="st1" d="M514.5,266.4c-3.4,0-5.8-2.7-5.8-6.1c0-3.4,2.4-6.1,5.8-6.1c3.4,0,5.8,2.7,5.8,6.1
	C520.3,263.7,517.9,266.4,514.5,266.4 M517.6,310.5h-6c-1.2,0-2.1-0.9-2.1-2.1v-33.9c0-1.2,0.9-2.1,2.1-2.1h6c1.2,0,2.1,0.9,2.1,2.1
	v33.9C519.7,309.6,518.8,310.5,517.6,310.5z"/>
<path class="st1" d="M555.3,310.5h-5.1c-1.3,0-2-0.8-2.2-2.2l-0.3-1.9c-2,2.8-5.9,4.6-10.7,4.6c-7.2,0-10.3-4.8-10.3-12.2
	c0-6.7,3.5-11.8,13.2-12.5l6.3-0.5c0-4.1-0.8-5.6-5.2-5.6c-2.7,0-5.9,0.7-7.8,1.3c-1.4,0.5-2.4-0.2-2.6-1.3l-1.1-4.4
	c-0.3-1.3,0.1-2.1,1.3-2.5c2.6-0.9,7.3-1.7,10.7-1.7c14.5,0,15,9.2,15,16v12.4c0,1.6-0.1,3.8,0.3,6l0.4,2.3
	C557.3,309.7,556.7,310.5,555.3,310.5 M546.2,292.8c-6,0-9.4,0.8-9.4,6c0,2.8,2,3.8,3.4,3.8c3.5,0,6-2.6,6-5.1V292.8z"/>
</svg>
