<?xml version="1.0" encoding="UTF-8"?>
<svg xmlns="http://www.w3.org/2000/svg" xmlns:xlink="http://www.w3.org/1999/xlink" width="330.34pt" height="74.95pt" viewBox="0 0 330.34 74.95" version="1.1">
<defs>
<clipPath id="clip1">
  <path d="M 0 55 L 327 55 L 327 74.949219 L 0 74.949219 Z M 0 55 "/>
</clipPath>
<clipPath id="clip2">
  <path d="M 218 0 L 330.339844 0 L 330.339844 47 L 218 47 Z M 218 0 "/>
</clipPath>
</defs>
<g id="surface1">
<g clip-path="url(#clip1)" clip-rule="nonzero">
<path style=" stroke:none;fill-rule:nonzero;fill:rgb(0%,50.59967%,77.999878%);fill-opacity:1;" d="M 0 74.949219 L 326.175781 74.949219 L 326.175781 55.902344 L 11.457031 55.902344 C 5.128906 55.902344 0 61.03125 0 67.359375 L 0 74.949219 "/>
</g>
<path style=" stroke:none;fill-rule:nonzero;fill:rgb(17.298889%,24.699402%,50.59967%);fill-opacity:1;" d="M 78.960938 8.601563 L 69.609375 36.792969 C 69.273438 37.808594 68.324219 38.640625 67.253906 38.640625 L 57.054688 38.640625 C 55.925781 38.640625 55.128906 37.238281 55.484375 36.167969 L 65.097656 7.480469 C 65.320313 6.808594 65.953125 6.5 66.664063 6.5 L 77.230469 6.5 C 78.472656 6.5 79.351563 7.421875 78.960938 8.601563 Z M 93.5 0.546875 L 52.28125 0.546875 C 48.0625 0.546875 25.050781 -0.816406 21.777344 13.535156 L 19.070313 22.855469 L 16.070313 33.082031 C 10.714844 46.980469 36.105469 46.976563 40.324219 46.976563 L 81.542969 46.976563 C 85.761719 46.976563 108.773438 47.136719 112.050781 32.78125 L 114.921875 22.855469 L 117.753906 13.535156 C 123.109375 -0.363281 97.71875 0.546875 93.5 0.546875 "/>
<path style=" stroke:none;fill-rule:nonzero;fill:rgb(17.298889%,24.699402%,50.59967%);fill-opacity:1;" d="M 179.972656 27.085938 L 176.75 36.941406 C 176.410156 37.957031 175.460938 39.085938 174.394531 39.085938 L 164.191406 39.085938 C 163.0625 39.085938 162.265625 36.664063 162.625 35.59375 L 172.234375 6.988281 C 172.460938 6.3125 173.09375 6.085938 173.804688 6.085938 L 184.371094 6.085938 C 185.613281 6.085938 186.492188 6.84375 186.097656 8.023438 L 183.886719 15.085938 L 224.363281 15.085938 L 224.894531 13.054688 C 230.25 -0.839844 204.855469 0.0859375 200.636719 0.0859375 L 159.417969 0.0859375 C 155.199219 0.0859375 132.1875 -1.84375 128.914063 12.511719 L 126.210938 21.550781 L 123.210938 32.484375 C 117.851563 46.382813 143.246094 47.085938 147.464844 47.085938 L 188.683594 47.085938 C 192.902344 47.085938 215.914063 46.867188 219.1875 32.511719 L 220.753906 27.085938 L 179.972656 27.085938 "/>
<g clip-path="url(#clip2)" clip-rule="nonzero">
<path style=" stroke:none;fill-rule:nonzero;fill:rgb(17.298889%,24.699402%,50.59967%);fill-opacity:1;" d="M 272.730469 26.738281 L 287.488281 7.59375 L 287.488281 26.738281 Z M 330.34375 46.976563 L 320.894531 0.546875 L 267.648438 0.546875 L 218.519531 46.976563 L 257.132813 46.976563 L 268.144531 32.691406 L 287.488281 32.691406 L 287.488281 46.976563 L 330.34375 46.976563 "/>
</g>
<path style=" stroke:none;fill-rule:nonzero;fill:rgb(18.399048%,22.399902%,50.59967%);fill-opacity:1;" d="M 217.230469 66.707031 L 223.089844 67.378906 C 222.191406 68.566406 220.699219 69.445313 218.609375 70.019531 C 216.519531 70.59375 213.867188 70.882813 210.652344 70.882813 C 206.679688 70.882813 203.410156 70.390625 200.851563 69.40625 C 198.292969 68.421875 197.011719 67.074219 197.011719 65.363281 C 197.011719 63.558594 198.300781 62.15625 200.871094 61.15625 C 203.445313 60.15625 206.828125 59.65625 211.023438 59.65625 C 214.683594 59.65625 217.660156 60.046875 219.945313 60.832031 C 221.308594 61.296875 222.328125 61.964844 223.011719 62.832031 L 217.023438 63.351563 C 216.671875 62.789063 215.933594 62.34375 214.808594 62.019531 C 213.6875 61.691406 212.320313 61.53125 210.714844 61.53125 C 208.496094 61.53125 206.695313 61.816406 205.3125 62.394531 C 203.933594 62.972656 203.242188 63.910156 203.242188 65.203125 C 203.242188 66.574219 203.921875 67.550781 205.28125 68.136719 C 206.644531 68.71875 208.414063 69.011719 210.59375 69.011719 C 212.199219 69.011719 213.582031 68.824219 214.738281 68.453125 C 215.894531 68.082031 216.726563 67.5 217.230469 66.707031 "/>
<path style=" stroke:none;fill-rule:nonzero;fill:rgb(18.399048%,22.399902%,50.59967%);fill-opacity:1;" d="M 245.820313 66.402344 L 241.691406 62.371094 L 237.648438 66.402344 Z M 256.949219 70.699219 L 250.371094 70.699219 L 247.757813 68.230469 L 235.792969 68.230469 L 233.320313 70.699219 L 226.90625 70.699219 L 238.570313 59.839844 L 244.960938 59.839844 L 256.949219 70.699219 "/>
<path style=" stroke:none;fill-rule:nonzero;fill:rgb(18.399048%,22.399902%,50.59967%);fill-opacity:1;" d="M 267.894531 64.433594 L 272.367188 64.433594 C 275.265625 64.433594 277.074219 64.386719 277.796875 64.296875 C 278.519531 64.210938 279.085938 64.054688 279.492188 63.839844 C 279.902344 63.621094 280.105469 63.351563 280.105469 63.027344 C 280.105469 62.660156 279.835938 62.363281 279.300781 62.140625 C 278.761719 61.914063 278.003906 61.773438 277.023438 61.714844 C 276.53125 61.691406 275.0625 61.675781 272.609375 61.675781 L 267.894531 61.675781 Z M 261.847656 70.699219 L 261.847656 59.839844 L 274.570313 59.839844 C 277.769531 59.839844 280.097656 59.9375 281.546875 60.132813 C 282.996094 60.328125 284.15625 60.675781 285.027344 61.171875 C 285.898438 61.671875 286.335938 62.242188 286.335938 62.882813 C 286.335938 63.699219 285.675781 64.371094 284.355469 64.902344 C 283.03125 65.433594 281.058594 65.769531 278.429688 65.90625 C 279.738281 66.183594 280.816406 66.488281 281.667969 66.816406 C 282.519531 67.148438 283.664063 67.734375 285.109375 68.582031 L 288.765625 70.699219 L 281.535156 70.699219 L 277.164063 68.335938 C 275.613281 67.492188 274.550781 66.957031 273.980469 66.738281 C 273.40625 66.519531 272.800781 66.367188 272.160156 66.289063 C 271.523438 66.207031 270.507813 66.164063 269.117188 66.164063 L 267.894531 66.164063 L 267.894531 70.699219 L 261.847656 70.699219 "/>
<path style=" stroke:none;fill-rule:nonzero;fill:rgb(18.399048%,22.399902%,50.59967%);fill-opacity:1;" d="M 299.730469 61.675781 L 299.730469 68.867188 L 304.242188 68.867188 C 305.929688 68.867188 307.148438 68.835938 307.898438 68.765625 C 308.878906 68.675781 309.691406 68.523438 310.339844 68.3125 C 310.984375 68.101563 311.511719 67.75 311.921875 67.265625 C 312.328125 66.78125 312.535156 66.117188 312.535156 65.277344 C 312.535156 64.4375 312.328125 63.792969 311.921875 63.34375 C 311.511719 62.894531 310.941406 62.542969 310.207031 62.292969 C 309.472656 62.039063 308.539063 61.867188 307.40625 61.78125 C 306.5625 61.710938 304.910156 61.675781 302.445313 61.675781 Z M 293.683594 59.839844 L 304.734375 59.839844 C 307.226563 59.839844 309.125 59.910156 310.429688 60.046875 C 312.1875 60.234375 313.691406 60.570313 314.941406 61.046875 C 316.195313 61.527344 317.148438 62.113281 317.804688 62.804688 C 318.457031 63.5 318.78125 64.355469 318.78125 65.375 C 318.78125 66.265625 318.476563 67.039063 317.863281 67.683594 C 317.113281 68.472656 316.046875 69.113281 314.65625 69.601563 C 313.609375 69.972656 312.191406 70.261719 310.410156 70.46875 C 309.074219 70.621094 307.292969 70.699219 305.058594 70.699219 L 293.683594 70.699219 L 293.683594 59.839844 "/>
</g>
</svg>
